<svg width="79" height="28" viewBox="0 0 79 28" fill="none" xmlns="http://www.w3.org/2000/svg">
<path d="M10.1895 21.1758C9.02344 21.1758 7.98047 20.9121 7.06055 20.3848C6.14062 19.8574 5.41406 19.0928 4.88086 18.0908C4.35352 17.0889 4.08984 15.8789 4.08984 14.4609C4.08984 13.0312 4.35645 11.8154 4.88965 10.8135C5.42871 9.81152 6.1582 9.04688 7.07812 8.51953C8.00391 7.99219 9.04102 7.72852 10.1895 7.72852C11.2031 7.72852 12.1143 7.91602 12.9229 8.29102C13.7373 8.66602 14.4023 9.20801 14.918 9.91699C15.4336 10.626 15.75 11.4844 15.8672 12.4922H13.0723C12.9668 11.7715 12.6592 11.2061 12.1494 10.7959C11.6396 10.3799 11.0068 10.1719 10.251 10.1719C9.24316 10.1719 8.43164 10.5469 7.81641 11.2969C7.20117 12.041 6.89355 13.0957 6.89355 14.4609C6.89355 15.8555 7.20117 16.916 7.81641 17.6426C8.4375 18.3691 9.24609 18.7324 10.2422 18.7324C10.9746 18.7324 11.5957 18.5391 12.1055 18.1523C12.6211 17.7656 12.9434 17.2236 13.0723 16.5264H15.8672C15.7676 17.3291 15.4805 18.085 15.0059 18.7939C14.5371 19.5029 13.8955 20.0771 13.0811 20.5166C12.2725 20.9561 11.3086 21.1758 10.1895 21.1758ZM19.7607 21.167C19.3271 21.167 18.9609 21.0205 18.6621 20.7275C18.3633 20.4287 18.2139 20.0654 18.2139 19.6377C18.2139 19.2041 18.3633 18.8408 18.6621 18.5479C18.9609 18.2549 19.3271 18.1084 19.7607 18.1084C20.1943 18.1084 20.5605 18.2549 20.8594 18.5479C21.1582 18.8408 21.3076 19.2041 21.3076 19.6377C21.3076 20.0654 21.1582 20.4287 20.8594 20.7275C20.5605 21.0205 20.1943 21.167 19.7607 21.167ZM19.7607 14.707C19.3271 14.707 18.9609 14.5605 18.6621 14.2676C18.3633 13.9688 18.2139 13.6055 18.2139 13.1777C18.2139 12.7441 18.3633 12.3809 18.6621 12.0879C18.9609 11.7949 19.3271 11.6484 19.7607 11.6484C20.1943 11.6484 20.5605 11.7949 20.8594 12.0879C21.1582 12.3809 21.3076 12.7441 21.3076 13.1777C21.3076 13.6055 21.1582 13.9688 20.8594 14.2676C20.5605 14.5605 20.1943 14.707 19.7607 14.707ZM27.249 22.9688L23.0303 7.28906H25.377L29.5957 22.9688H27.249Z" fill="#006D91"/>
<path d="M32.5801 15.325C32.5801 14.3617 32.7728 13.523 33.1581 12.809C33.5435 12.0837 34.0761 11.5227 34.7561 11.126C35.4475 10.7293 36.2351 10.531 37.1191 10.531C38.2638 10.531 39.2045 10.8087 39.9411 11.364C40.6891 11.9193 41.1821 12.69 41.4201 13.676H39.7541C39.5955 13.1093 39.2838 12.6617 38.8191 12.333C38.3658 12.0043 37.7991 11.84 37.1191 11.84C36.2351 11.84 35.5211 12.146 34.9771 12.758C34.4331 13.3587 34.1611 14.2143 34.1611 15.325C34.1611 16.447 34.4331 17.314 34.9771 17.926C35.5211 18.538 36.2351 18.844 37.1191 18.844C37.7991 18.844 38.3658 18.6853 38.8191 18.368C39.2725 18.0507 39.5841 17.5973 39.7541 17.008H41.4201C41.1708 17.96 40.6721 18.725 39.9241 19.303C39.1761 19.8697 38.2411 20.153 37.1191 20.153C36.2351 20.153 35.4475 19.9547 34.7561 19.558C34.0761 19.1613 33.5435 18.6003 33.1581 17.875C32.7728 17.1497 32.5801 16.2997 32.5801 15.325ZM42.9063 15.308C42.9063 14.356 43.099 13.523 43.4843 12.809C43.8696 12.0837 44.3966 11.5227 45.0653 11.126C45.7453 10.7293 46.499 10.531 47.3263 10.531C48.1423 10.531 48.8506 10.7067 49.4513 11.058C50.052 11.4093 50.4996 11.8513 50.7943 12.384V10.684H52.3583V20H50.7943V18.266C50.4883 18.81 50.0293 19.2633 49.4173 19.626C48.8166 19.9773 48.114 20.153 47.3093 20.153C46.482 20.153 45.734 19.949 45.0653 19.541C44.3966 19.133 43.8696 18.5607 43.4843 17.824C43.099 17.0873 42.9063 16.2487 42.9063 15.308ZM50.7943 15.325C50.7943 14.6223 50.6526 14.0103 50.3693 13.489C50.086 12.9677 49.7006 12.571 49.2133 12.299C48.7373 12.0157 48.2103 11.874 47.6323 11.874C47.0543 11.874 46.5273 12.01 46.0513 12.282C45.5753 12.554 45.1956 12.9507 44.9123 13.472C44.629 13.9933 44.4873 14.6053 44.4873 15.308C44.4873 16.022 44.629 16.6453 44.9123 17.178C45.1956 17.6993 45.5753 18.1017 46.0513 18.385C46.5273 18.657 47.0543 18.793 47.6323 18.793C48.2103 18.793 48.7373 18.657 49.2133 18.385C49.7006 18.1017 50.086 17.6993 50.3693 17.178C50.6526 16.6453 50.7943 16.0277 50.7943 15.325ZM67.3826 10.684L64.4756 20H62.8776L60.6336 12.605L58.3896 20H56.7916L53.8676 10.684H55.4486L57.5906 18.504L59.9026 10.684H61.4836L63.7446 18.521L65.8526 10.684H67.3826ZM77.4179 14.985C77.4179 15.2797 77.4009 15.5913 77.3669 15.92H69.9209C69.9776 16.838 70.2892 17.5577 70.8559 18.079C71.4339 18.589 72.1309 18.844 72.9469 18.844C73.6156 18.844 74.1709 18.691 74.6129 18.385C75.0662 18.0677 75.3836 17.6483 75.5649 17.127H77.2309C76.9816 18.0223 76.4829 18.7533 75.7349 19.32C74.9869 19.8753 74.0576 20.153 72.9469 20.153C72.0629 20.153 71.2696 19.9547 70.5669 19.558C69.8756 19.1613 69.3316 18.6003 68.9349 17.875C68.5382 17.1383 68.3399 16.2883 68.3399 15.325C68.3399 14.3617 68.5326 13.5173 68.9179 12.792C69.3032 12.0667 69.8416 11.5113 70.5329 11.126C71.2356 10.7293 72.0402 10.531 72.9469 10.531C73.8309 10.531 74.6129 10.7237 75.2929 11.109C75.9729 11.4943 76.4942 12.027 76.8569 12.707C77.2309 13.3757 77.4179 14.135 77.4179 14.985ZM75.8199 14.662C75.8199 14.0727 75.6896 13.5683 75.4289 13.149C75.1682 12.7183 74.8112 12.3953 74.3579 12.18C73.9159 11.9533 73.4229 11.84 72.8789 11.84C72.0969 11.84 71.4282 12.0893 70.8729 12.588C70.3289 13.0867 70.0172 13.778 69.9379 14.662H75.8199Z" fill="black"/>
</svg>
